<svg id="Layer_1" height="512" viewBox="0 0 150 150" width="512" xmlns="http://www.w3.org/2000/svg" data-name="Layer 1"><circle cx="75" cy="75" fill="#21b3a9" r="64"/><path d="m45.08 35.62h59.83a2 2 0 0 1 2 2v50.08a2 2 0 0 1 -2 2h-59.83a2 2 0 0 1 -2-2v-50.06a2 2 0 0 1 2-2.02z" fill="#ebf0f3"/><path d="m100.58 85.65-.7-.71 5.76-5.77a1.85 1.85 0 0 0 .56-1.33v-11.57a1.88 1.88 0 0 0 -1.14-1.73l-7.59-3.3.4-.92 7.59 3.3a2.9 2.9 0 0 1 1.74 2.65v11.57a2.86 2.86 0 0 1 -.85 2z" fill="#64798a"/><rect fill="#3a556a" height="10.01" rx=".94" width="4.96" x="104.22" y="66.89"/><path d="m49.42 85.65.7-.71-5.76-5.77a1.85 1.85 0 0 1 -.56-1.33v-11.57a1.88 1.88 0 0 1 1.14-1.73l7.59-3.3-.4-.92-7.59 3.3a2.9 2.9 0 0 0 -1.74 2.65v11.57a2.86 2.86 0 0 0 .85 2z" fill="#64798a"/><rect fill="#3a556a" height="10.01" rx=".94" width="4.96" x="40.82" y="66.89"/><path d="m100.76 63.61a6.21 6.21 0 0 0 -6.39-6.31l-19.37-.57-19.37.57a6.21 6.21 0 0 0 -6.39 6.31c-.34 6.07-1.55 16-1.26 33.13a4.08 4.08 0 0 0 4.08 4h45.88a4.08 4.08 0 0 0 4.08-4c.29-17.12-.92-27.06-1.26-33.13z" fill="#fe7058"/><rect fill="#2f4859" height="17.45" rx="1.72" width="10.39" x="88.96" y="96.93"/><rect fill="#2f4859" height="17.45" rx="1.72" width="11.39" x="50.82" y="96.93"/><path d="m99.84 67.53c-.43-4.38-1.55-6-4.13-6.79s-20.71-1-20.71-1-18.13.26-20.71 1-3.7 2.41-4.13 6.79-.43 10.4 0 11.78 5.42 1 9.37 1 15.47 0 15.47 0 11.52 0 15.47 0 8.94.34 9.37-1 .43-7.39 0-11.78z" fill="#3a556a"/><path d="m101.88 95h-53.76a1.32 1.32 0 0 0 -1.33 1.38 55.8 55.8 0 0 0 .77 7.78 3.24 3.24 0 0 0 3.27 2.5h48.34a3.24 3.24 0 0 0 3.27-2.5 55.8 55.8 0 0 0 .77-7.78 1.32 1.32 0 0 0 -1.33-1.38z" fill="#3a556a"/><path d="m93.63 97.59a3.15 3.15 0 1 0 3.15 3.15 3.15 3.15 0 0 0 -3.15-3.15z" fill="#e1e6e9"/><path d="m55.59 97.59a3.15 3.15 0 1 0 3.15 3.15 3.15 3.15 0 0 0 -3.15-3.15z" fill="#e1e6e9"/><path d="m85.22 98.79h-20.44a.68.68 0 1 0 0 1.36h20.44a.68.68 0 0 0 0-1.36z" fill="#2f4859"/><path d="m85.22 101.52h-20.44a.68.68 0 1 0 0 1.35h20.44a.68.68 0 1 0 0-1.35z" fill="#2f4859"/><path d="m98.92 84.69a.92.92 0 0 0 -1-.82 219.42 219.42 0 0 1 -46.26 0 .93.93 0 0 0 -1 .82.94.94 0 0 0 .83 1 221.68 221.68 0 0 0 46.64 0 .93.93 0 0 0 .83-1z" fill="#ea6453"/><path d="m98.36 87.12a37.15 37.15 0 0 0 -8.9 2.57l-.27.19-1.89 2a.85.85 0 0 0 .62 1.45h10.55a.89.89 0 0 0 .89-.89v-4.44a.86.86 0 0 0 -1-.88z" fill="#ea6453"/><circle cx="96.65" cy="90.6" fill="#ebf0f3" r="1.61"/><circle cx="92.22" cy="91.07" fill="#ebf0f3" r="1.23"/><path d="m51.61 87.12a37.15 37.15 0 0 1 8.9 2.57l.27.19 1.9 2a.86.86 0 0 1 -.63 1.45h-10.54a.89.89 0 0 1 -.9-.89v-4.44a.86.86 0 0 1 1-.88z" fill="#ea6453"/><g fill="#ebf0f3"><circle cx="53.33" cy="90.6" r="1.61"/><circle cx="57.75" cy="91.07" r="1.23"/></g></svg>